# xmcd
#
# Track frame offsets: 
#        182
#        15715
#        30905
#        45722
#        56340
#        69032
#        82230
#        96160
#        106090
#        115312
#        130612
#        146965
#        161435
#        174945
#        184265
#        199645
#
# Disc length: 2864 seconds
#
# Revision: 2
# Processed by: cddbd v1.5.2PL0 Copyright (c) Steve Scherf et al.
# Submitted via: ExactAudioCopy v1.3
#
DISCID=cb0b2e10
DTITLE=Edith Piaf - Ses plus grands succès
DYEAR=1994
DGENRE=Chanson
TTITLE0=Hymne à l'amour
TTITLE1=Je hais les dimanches
TTITLE2=Padam... Padam
TTITLE3=La valse de l'amour
TTITLE4=Je t'ai dans la peau
TTITLE5=Au bal de la chance
TTITLE6=Bravo pour le clown
TTITLE7=Johnny tu n'es pas un ange
TTITLE8=La goualante du pauvre Jean
TTITLE9=Sous le ciel de Paris
TTITLE10=L'accordéoniste
TTITLE11=Le chemin des forains
TTITLE12=C'est à Hambourg
TTITLE13=L'homme au piano
TTITLE14=Mon Dieu
TTITLE15=Une enfant
EXTD=
EXTT0=
EXTT1=
EXTT2=
EXTT3=
EXTT4=
EXTT5=
EXTT6=
EXTT7=
EXTT8=
EXTT9=
EXTT10=
EXTT11=
EXTT12=
EXTT13=
EXTT14=
EXTT15=
PLAYORDER=
